<svg id="eesbZxk0uED1" xmlns="http://www.w3.org/2000/svg" xmlns:xlink="http://www.w3.org/1999/xlink" viewBox="0 0 1024 614" shape-rendering="geometricPrecision" text-rendering="geometricPrecision"><style><![CDATA[#eesbZxk0uED3_to {animation: eesbZxk0uED3_to__to 2000ms linear infinite normal forwards}@keyframes eesbZxk0uED3_to__to { 0% {transform: translate(355.700012px,398.857632px)} 25% {transform: translate(378.800012px,398.827460px)} 75% {transform: translate(333.700012px,398.827460px)} 100% {transform: translate(355.800011px,398.827460px)}} #eesbZxk0uED4_to {animation: eesbZxk0uED4_to__to 2000ms linear infinite normal forwards}@keyframes eesbZxk0uED4_to__to { 0% {transform: translate(669.299988px,398.757596px)} 25% {transform: translate(692.300000px,398.827435px)} 75% {transform: translate(647.299988px,398.827435px)} 100% {transform: translate(669.300006px,398.827435px)}}]]></style><g id="eesbZxk0uED2"><g id="eesbZxk0uED3_to" transform="translate(355.700012,398.857632)"><circle id="eesbZxk0uED3" r="18" transform="translate(-0.000012,-0.000024)" clip-rule="evenodd" fill="rgb(221,61,67)" fill-rule="evenodd" stroke="none" stroke-width="1" stroke-miterlimit="1"/></g><g id="eesbZxk0uED4_to" transform="translate(669.299988,398.757596)"><circle id="eesbZxk0uED4" r="18" transform="translate(0,0)" clip-rule="evenodd" fill="rgb(221,61,67)" fill-rule="evenodd" stroke="none" stroke-width="1" stroke-miterlimit="1"/></g></g><g id="eesbZxk0uED5"><path id="eesbZxk0uED6" d="M497.900000,552.400000C497.900000,552.300000,497.900000,552.200000,497.900000,552.100000C497.900000,552,497.900000,552,497.900000,551.900000C497.900000,551.800000,497.900000,551.700000,497.900000,551.600000C497.900000,551.500000,497.900000,551.400000,497.900000,551.300000C497.900000,551.300000,497.900000,551.300000,497.900000,551.300000C497.500000,549.100000,496.500000,547.100000,494.900000,545.500000C485.800000,534.800000,475,525.200000,464.100000,516.500000C440.500000,497.700000,413.400000,482,383.600000,475.700000C366.500000,472.100000,348.900000,471.900000,331.700000,475C315.900000,477.800000,300.700000,483.700000,286.500000,490.900000C264.200000,502.200000,243.900000,517.900000,226.200000,535.400000C222.900000,538.600000,219.700000,542,216.700000,545.500000C212.700000,550.200000,212.700000,555.700000,216.700000,560.400000C225.800000,571.100000,236.600000,580.700000,247.500000,589.400000C271.100000,608.200000,298.200000,623.900000,328,630.200000C345.100000,633.800000,362.700000,634.100000,379.900000,630.900000C395.700000,628.100000,410.900000,622.200000,425.100000,615C447.400000,603.600000,467.700000,588,485.400000,570.500000C488.700000,567.300000,491.900000,563.900000,494.900000,560.400000C496.500000,558.800000,497.500000,556.800000,497.900000,554.600000C497.900000,554.600000,497.900000,554.600000,497.900000,554.600000C497.900000,554.500000,497.900000,554.400000,497.900000,554.300000C497.900000,554.200000,497.900000,554.100000,497.900000,554C497.900000,553.900000,497.900000,553.900000,497.900000,553.800000C497.900000,553.700000,497.900000,553.600000,497.900000,553.500000C497.900000,553.300000,497.900000,553.100000,497.900000,553C497.900000,552.700000,497.900000,552.600000,497.900000,552.400000ZM355.700000,607.500000C325.600000,607.400000,301.200000,582.900000,301.300000,552.800000C301.400000,522.700000,325.900000,498.300000,356,498.400000C386.100000,498.500000,410.400000,522.900000,410.400000,553C410.400000,583.100000,385.900000,607.500000,355.700000,607.500000C355.700000,607.500000,355.700000,607.500000,355.700000,607.500000Z" transform="matrix(1 0 0 1 0 -154.04239200000006)" clip-rule="evenodd" fill="rgb(221,61,67)" fill-rule="evenodd" stroke="none" stroke-width="1" stroke-miterlimit="1"/><path id="eesbZxk0uED7" d="M811.400000,552.300000C811.400000,552.200000,811.400000,552.100000,811.400000,552C811.400000,551.900000,811.400000,551.900000,811.400000,551.800000C811.400000,551.700000,811.400000,551.600000,811.400000,551.500000C811.400000,551.400000,811.400000,551.300000,811.400000,551.200000C811.400000,551.200000,811.400000,551.200000,811.400000,551.200000C811,549,810,547,808.400000,545.400000C799.300000,534.700000,788.500000,525.100000,777.600000,516.400000C754,497.600000,726.900000,481.900000,697.100000,475.600000C680,472,662.400000,471.800000,645.200000,474.900000C629.400000,477.700000,614.200000,483.600000,600,490.800000C577.700000,502.100000,557.400000,517.800000,539.700000,535.300000C536.400000,538.500000,533.200000,541.900000,530.200000,545.400000C526.200000,550.100000,526.200000,555.600000,530.200000,560.300000C539.300000,571,550.100000,580.600000,561,589.300000C584.600000,608.100000,611.700000,623.800000,641.500000,630.100000C658.600000,633.700000,676.200000,634,693.400000,630.800000C709.200000,628,724.400000,622.100000,738.600000,614.900000C760.900000,603.500000,781.200000,587.900000,798.900000,570.400000C802.200000,567.200000,805.400000,563.800000,808.400000,560.300000C810,558.700000,811,556.700000,811.400000,554.500000C811.400000,554.500000,811.400000,554.500000,811.400000,554.500000C811.400000,554.400000,811.400000,554.300000,811.400000,554.200000C811.400000,554.100000,811.400000,554,811.400000,553.900000C811.400000,553.800000,811.400000,553.800000,811.400000,553.700000C811.400000,553.600000,811.400000,553.500000,811.400000,553.400000C811.400000,553.200000,811.400000,553,811.400000,552.900000C811.400000,552.600000,811.400000,552.500000,811.400000,552.300000ZM669.300000,607.400000C639.200000,607.300000,614.800000,582.800000,614.900000,552.700000C615,522.600000,639.500000,498.200000,669.600000,498.300000C699.700000,498.400000,724,522.800000,724,552.900000C723.900000,583,699.400000,607.400000,669.300000,607.400000C669.300000,607.400000,669.300000,607.400000,669.300000,607.400000Z" transform="matrix(1 0 0 1 0 -154.04239200000006)" clip-rule="evenodd" fill="rgb(221,61,67)" fill-rule="evenodd" stroke="none" stroke-width="1" stroke-miterlimit="1"/><g id="eesbZxk0uED8"><path id="eesbZxk0uED9" d="M810.700000,411.100000L213.300000,411.100000L213.300000,269.800000L810.600000,269.800000L810.600000,411.100000ZM224.700000,399.800000L799.300000,399.800000L799.300000,281.100000L224.700000,281.100000L224.700000,399.800000Z" transform="matrix(1 0 0 1 0 -154.04239200000001)" fill="rgb(221,61,67)" stroke="none" stroke-width="1" stroke-miterlimit="1"/><rect id="eesbZxk0uED10" width="11.800000" height="30.100000" rx="0" ry="0" transform="matrix(1 0 0 1 238.59999999999999 124.65760799999998)" fill="rgb(221,61,67)" stroke="none" stroke-width="1" stroke-miterlimit="1"/><rect id="eesbZxk0uED11" width="11.800000" height="50.300000" rx="0" ry="0" transform="matrix(1 0 0 1 262.80000000000001 124.65760799999998)" fill="rgb(221,61,67)" stroke="none" stroke-width="1" stroke-miterlimit="1"/><rect id="eesbZxk0uED12" width="12.400000" height="30.100000" rx="0" ry="0" transform="matrix(1 0 0 1 287 124.65760799999998)" fill="rgb(221,61,67)" stroke="none" stroke-width="1" stroke-miterlimit="1"/><rect id="eesbZxk0uED13" width="11.800000" height="50.300000" rx="0" ry="0" transform="matrix(1 0 0 1 311.80000000000001 124.65760799999998)" fill="rgb(221,61,67)" stroke="none" stroke-width="1" stroke-miterlimit="1"/><rect id="eesbZxk0uED14" width="11.800000" height="30.100000" rx="0" ry="0" transform="matrix(1 0 0 1 335.89999999999998 124.65760799999998)" fill="rgb(221,61,67)" stroke="none" stroke-width="1" stroke-miterlimit="1"/><rect id="eesbZxk0uED15" width="11.800000" height="50.300000" rx="0" ry="0" transform="matrix(1 0 0 1 360.80000000000001 124.65760799999998)" fill="rgb(221,61,67)" stroke="none" stroke-width="1" stroke-miterlimit="1"/><rect id="eesbZxk0uED16" width="12.400000" height="30.100000" rx="0" ry="0" transform="matrix(1 0 0 1 384.30000000000001 124.65760799999998)" fill="rgb(221,61,67)" stroke="none" stroke-width="1" stroke-miterlimit="1"/><rect id="eesbZxk0uED17" width="11.800000" height="50.300000" rx="0" ry="0" transform="matrix(1 0 0 1 408.50000000000000 124.65760799999998)" fill="rgb(221,61,67)" stroke="none" stroke-width="1" stroke-miterlimit="1"/><rect id="eesbZxk0uED18" width="11.800000" height="30.100000" rx="0" ry="0" transform="matrix(1 0 0 1 433.30000000000001 124.65760799999998)" fill="rgb(221,61,67)" stroke="none" stroke-width="1" stroke-miterlimit="1"/><rect id="eesbZxk0uED19" width="12.400000" height="50.300000" rx="0" ry="0" transform="matrix(1 0 0 1 457.50000000000000 124.65760799999998)" fill="rgb(221,61,67)" stroke="none" stroke-width="1" stroke-miterlimit="1"/><rect id="eesbZxk0uED20" width="11.800000" height="30.100000" rx="0" ry="0" transform="matrix(1 0 0 1 481.60000000000002 124.65760799999998)" fill="rgb(221,61,67)" stroke="none" stroke-width="1" stroke-miterlimit="1"/><rect id="eesbZxk0uED21" width="11.800000" height="50.300000" rx="0" ry="0" transform="matrix(1 0 0 1 505.80000000000001 124.65760799999998)" fill="rgb(221,61,67)" stroke="none" stroke-width="1" stroke-miterlimit="1"/><rect id="eesbZxk0uED22" width="11.800000" height="30.100000" rx="0" ry="0" transform="matrix(1 0 0 1 530.60000000000002 124.65760799999998)" fill="rgb(221,61,67)" stroke="none" stroke-width="1" stroke-miterlimit="1"/><rect id="eesbZxk0uED23" width="12.400000" height="50.300000" rx="0" ry="0" transform="matrix(1 0 0 1 554.10000000000002 124.65760799999998)" fill="rgb(221,61,67)" stroke="none" stroke-width="1" stroke-miterlimit="1"/><rect id="eesbZxk0uED24" width="11.800000" height="30.100000" rx="0" ry="0" transform="matrix(1 0 0 1 579 124.65760799999998)" fill="rgb(221,61,67)" stroke="none" stroke-width="1" stroke-miterlimit="1"/><rect id="eesbZxk0uED25" width="11.800000" height="50.300000" rx="0" ry="0" transform="matrix(1 0 0 1 603.10000000000002 124.65760799999998)" fill="rgb(221,61,67)" stroke="none" stroke-width="1" stroke-miterlimit="1"/><rect id="eesbZxk0uED26" width="12.400000" height="30.100000" rx="0" ry="0" transform="matrix(1 0 0 1 627.29999999999995 124.65760799999998)" fill="rgb(221,61,67)" stroke="none" stroke-width="1" stroke-miterlimit="1"/><rect id="eesbZxk0uED27" width="11.800000" height="50.300000" rx="0" ry="0" transform="matrix(1 0 0 1 651.50000000000000 124.65760799999998)" fill="rgb(221,61,67)" stroke="none" stroke-width="1" stroke-miterlimit="1"/><rect id="eesbZxk0uED28" width="11.800000" height="30.100000" rx="0" ry="0" transform="matrix(1 0 0 1 676.29999999999995 124.65760799999998)" fill="rgb(221,61,67)" stroke="none" stroke-width="1" stroke-miterlimit="1"/><rect id="eesbZxk0uED29" width="11.800000" height="50.300000" rx="0" ry="0" transform="matrix(1 0 0 1 700.50000000000000 124.65760799999998)" fill="rgb(221,61,67)" stroke="none" stroke-width="1" stroke-miterlimit="1"/><rect id="eesbZxk0uED30" width="12.400000" height="30.100000" rx="0" ry="0" transform="matrix(1 0 0 1 724.60000000000002 124.65760799999998)" fill="rgb(221,61,67)" stroke="none" stroke-width="1" stroke-miterlimit="1"/><rect id="eesbZxk0uED31" width="11.800000" height="50.300000" rx="0" ry="0" transform="matrix(1 0 0 1 748.79999999999995 124.65760799999998)" fill="rgb(221,61,67)" stroke="none" stroke-width="1" stroke-miterlimit="1"/><rect id="eesbZxk0uED32" width="11.800000" height="30.100000" rx="0" ry="0" transform="matrix(1 0 0 1 773.60000000000002 124.65760799999998)" fill="rgb(221,61,67)" stroke="none" stroke-width="1" stroke-miterlimit="1"/></g></g></svg>